<?xml version="1.0"?>
<svg xmlns="http://www.w3.org/2000/svg" xmlns:xlink="http://www.w3.org/1999/xlink" x="0px" y="0px"
	 viewBox="0 0 265.503418 67.0151978" enable-background="new 0 0 265.503418 67.0151978" xml:space="preserve">
			<path fill="#49C8F5" d="M19.3830261,0C8.677002,0,0,8.7130127,0,19.4599915
				c0,10.7480164,8.677002,19.4590149,19.3830261,19.4590149h19.3829956V19.4599915C38.7660217,8.7130127,30.0870056,0,19.3830261,0
				 M27.0470276,27.1529846h-7.6640015c-4.2330017,0-7.6640015-3.4449768-7.6640015-7.6929932
				c0-4.25,3.4309998-7.697998,7.6640015-7.697998c4.2339783,0,7.6640015,3.447998,7.6640015,7.697998V27.1529846z"/>
		<path fill="#0D1130" d="M61.5880127,4.0215149l-8.2890015,34.8969727h5.9279785l1.7080078-6.8609924h12.6080017
			l1.9110107,6.8609924h5.928009L73.1910095,4.0215149H61.5880127z M66.15802,9.4654846h2.3619995l3.867981,16.8960266h-10.196991
			L66.15802,9.4654846z"/>
			<path fill="#0D1130" d="M101.6784363,14.1063843l-0.2030029,4.9930115c0,0-3.9670105-0.45401-5.875-0.45401
				c-5.125,0-6.2799988,1.9150085-6.2799988,7.3640137c0,6.0509949,1.0539856,8.0159912,6.3289795,8.0159912
				c1.9100037,0,5.8770142-0.4530029,5.8770142-0.4530029l0.1520081,4.9950256c0,0-5.125,0.9049988-7.7880249,0.9049988
				c-7.6349792,0-10.3999939-3.8800049-10.3999939-13.4630127c0-9.0289917,3.0660095-12.8619995,10.553009-12.8619995
				C96.753418,13.1473999,101.6784363,14.1063843,101.6784363,14.1063843"/>
			<path fill="#0D1130" d="M126.6445312,13.7531738v25.1640015h-5.7260132v-1.2619934c0,0-3.9190063,1.8179932-6.6289978,1.8179932
				c-7.2359924,0-8.6920166-3.7299805-8.6920166-12.5579834V13.7531738h5.7250061v13.1110229
				c0,5.3469849,0.3040161,7.4159851,4.1220093,7.4159851c2.2089844,0,5.473999-1.1609802,5.473999-1.1609802V13.7531738
				H126.6445312z"/>
			<path fill="#0D1130" d="M131.0680542,38.9177551V13.7537842h5.6779785v1.3609924c0,0,2.1099854-1.1600037,4.3699951-1.5630188
				c0.9019775-0.2039795,1.8560181-0.3539734,2.6119995-0.3539734c2.5609741,0.1019897,4.3690186,0.8079834,5.6240234,2.117981
				c2.2109985-0.8559875,5.7779541-2.1669922,8.7419434-2.1669922c6.8300171,0,8.7380371,3.7819824,8.7380371,12.6069946v13.1619873
				h-5.7260132V28.0247803c0-6.8080139-0.0980225-9.480011-4.1159668-9.480011c-2.4620361,0-5.427002,1.2109985-5.4770508,1.2590027
				c0.151001,0.3540039,0.3520508,3.7340088,0.3520508,6.053009v13.0609741h-5.7260132V25.9567566
				c0-5.3469849-0.5040283-7.4119873-4.1210327-7.4119873c-2.2099609,0-5.2219849,1.1600037-5.2219849,1.1600037v19.2129822
				H131.0680542z"/>
			<path fill="#0D1130" d="M179.2459106,28.0247803c-2.1610107,0.2020264-3.315979,1.1600037-3.315979,3.2279968
				c0,2.1190186,0.9049683,3.2790222,2.5639648,3.2790222c2.6630249,0,6.2780151-1.0090027,6.2780151-1.0090027v-5.8009949
				L179.2459106,28.0247803z M190.499939,32.0587769c0.0509644,1.7670288,0.5999756,2.2690125,2.05896,2.5240173
				l-0.2019653,4.8909912c-3.9190063,0-5.223999-0.6069946-6.7290039-1.7669983c0,0-4.3220215,1.7669983-8.19104,1.7669983
				c-4.7719727,0-7.282959-3.0780029-7.282959-8.0709839c0-5.3950195,2.9609985-7.2610168,8.3880005-7.6640015l6.2299805-0.5050049
				v-1.5119934c0-1.9660034-1.2059937-3.0270081-3.1140137-3.0270081c-3.7160034,0-9.6950073,0.45401-9.6950073,0.45401
				l-0.1999512-4.8930054c0,0,6.4769897-1.1090088,10.1969604-1.1090088c5.5250244,0,8.5400391,2.321991,8.5400391,8.5230103
				V32.0587769z"/>
			<path fill="#0D1130" d="M202.6072388,18.9477844v10.2890015c0,3.480011,0.098999,4.7880249,2.6119995,4.7880249
				c1.4089966,0,4.0709839-0.1500244,4.0709839-0.1500244l0.2479858,4.9410095c0,0-3.3640137,0.7070007-5.1220093,0.7070007
				c-5.7789917,0-7.5349731-2.2179871-7.5349731-9.480011V18.9477844h-3.1630249v-5.1939697h3.1630249V6.4407959h5.7260132
				v7.3130188h6.7819824v5.1939697H202.6072388z"/>
		<path fill="#0D1130" d="M213.3584595,9.6691589h5.7260132V3.5671692h-5.7260132V9.6691589z M213.3584595,38.9181824h5.7260132
			V13.7541809h-5.7260132V38.9181824z"/>
			<path fill="#0D1130" d="M240.8873291,14.1063843l-0.2010498,4.9930115c0,0-3.9689941-0.45401-5.8769531-0.45401
				c-5.1220093,0-6.2800293,1.9150085-6.2800293,7.3640137c0,6.0509949,1.0560303,8.0159912,6.3289795,8.0159912
				c1.9100342,0,5.8770142-0.4530029,5.8770142-0.4530029l0.1520386,4.9950256c0,0-5.1220093,0.9049988-7.7850342,0.9049988
				c-7.6359863,0-10.4000244-3.8800049-10.4000244-13.4630127c0-9.0289917,3.06604-12.8619995,10.5500488-12.8619995
				C235.9642944,13.1473999,240.8873291,14.1063843,240.8873291,14.1063843"/>
			<path fill="#0D1130" d="M252.1904297,28.0247803c-2.15802,0.2020264-3.3150024,1.1600037-3.3150024,3.2279968
				c0,2.1190186,0.9069824,3.2790222,2.5629883,3.2790222c2.6630249,0,6.2780151-1.0090027,6.2780151-1.0090027v-5.8009949
				L252.1904297,28.0247803z M263.444458,32.0587769c0.0479736,1.7670288,0.6019897,2.2690125,2.05896,2.5240173
				l-0.2019653,4.8909912c-3.9190063,0-5.223999-0.6069946-6.7319946-1.7669983c0,0-4.3190308,1.7669983-8.1880493,1.7669983
				c-4.7699585,0-7.282959-3.0780029-7.282959-8.0709839c0-5.3950195,2.9639893-7.2610168,8.3909912-7.6640015l6.2269897-0.5050049
				v-1.5119934c0-1.9660034-1.2039795-3.0270081-3.1140137-3.0270081c-3.7160034,0-9.6950073,0.45401-9.6950073,0.45401
				l-0.1999512-4.8930054c0,0,6.4799805-1.1090088,10.1969604-1.1090088c5.5250244,0,8.5400391,2.321991,8.5400391,8.5230103
				V32.0587769z"/>
		<polygon fill="#49C8F5" points="91.767334,56.2887573 88.2213135,56.2887573 88.2213135,54.4377747 97.4893188,54.4377747 
			97.4893188,56.2887573 93.9433289,56.2887573 93.9433289,66.7877808 91.767334,66.7877808"/>
			<path fill="#49C8F5" d="M99.4405212,53.4564819h2.1579895v3.4370117L101.5234985,58.6875
				c0.3869934-0.3649902,0.8160095-0.6900024,1.2839966-0.9720154c0.4700012-0.2839966,1.0230103-0.4259949,1.6610107-0.4259949
				c0.9880066,0,1.7070007,0.3179932,2.1579895,0.95401c0.4500122,0.6359863,0.6750183,1.54599,0.6750183,2.7290039v5.815979
				h-2.15802v-5.5329895c0-0.7680054-0.1119995-1.3089905-0.3369751-1.6239929
				c-0.2250061-0.3150024-0.5940247-0.4720154-1.1080017-0.4720154c-0.3990173,0-0.7530212,0.0980225-1.059021,0.2920227
				c-0.3069763,0.1959839-0.6539917,0.4819946-1.0409851,0.8599854v6.4769897h-2.1579895V53.4564819z"/>
			<path fill="#49C8F5" d="M115.5753174,61.3311768c0-0.742981-0.1539917-1.321991-0.4599915-1.7379761
				c-0.3070068-0.4150085-0.7789917-0.6220093-1.4169922-0.6220093c-0.5500183,0-1.0310059,0.197998-1.4440002,0.5939941
				c-0.4129944,0.3970032-0.6700134,0.9859924-0.7690125,1.7659912H115.5753174z M109.4023438,62.1621704
				c0-0.7559814,0.118988-1.4359741,0.3569946-2.0389709c0.2369995-0.605011,0.5529785-1.1150208,0.946991-1.5299988
				c0.3940125-0.4150085,0.8469849-0.73703,1.3599854-0.9640198c0.5130005-0.2259827,1.0380249-0.3399963,1.5760193-0.3399963
				c0.6260071,0,1.1759949,0.1069946,1.651001,0.321991c0.4750061,0.2140198,0.8729858,0.5169983,1.1919861,0.9060059
				c0.3190002,0.3900146,0.559021,0.8569946,0.7220154,1.3970032c0.1629944,0.5410156,0.243988,1.1329956,0.243988,1.776001
				c0,0.428009-0.0319824,0.7680054-0.0939941,1.0190125h-5.8540039c0.1000061,0.8439941,0.3909912,1.4919739,0.8730164,1.9449768
				c0.4809875,0.45401,1.0969849,0.6800232,1.8479919,0.6800232c0.3999939,0,0.7720032-0.059021,1.1159973-0.1800232
				c0.3439941-0.118988,0.6849976-0.2859802,1.0230103-0.5l0.7309875,1.3600159
				c-0.4379883,0.2900085-0.9249878,0.5279846-1.4630127,0.71698c-0.5379944,0.1890259-1.1009827,0.2840271-1.6889954,0.2840271
				c-0.6380005,0-1.2319946-0.1110229-1.7819824-0.3310242c-0.5510254-0.2200012-1.0320129-0.5379944-1.4450073-0.9539795
				c-0.4120178-0.4150085-0.7340088-0.9219971-0.9660034-1.5190125
				C109.5183411,63.6121826,109.4023438,62.9301758,109.4023438,62.1621704"/>
			<path fill="#49C8F5" d="M123.0983276,60.6511841c0-1.0079956,0.1469727-1.9099731,0.440979-2.7089844
				c0.2940063-0.8009949,0.6969604-1.4769897,1.2099609-2.0299988c0.5130005-0.5549927,1.1130371-0.9760132,1.8010254-1.2659912
				c0.6879883-0.2890015,1.4260254-0.4349976,2.2139893-0.4349976c0.75,0,1.4219971,0.1589966,2.0170288,0.4719849
				c0.5929565,0.3150024,1.0839844,0.6799927,1.4719849,1.0960083l-1.2189941,1.3599854
				c-0.3129883-0.3150024-0.6470337-0.5639954-1.0040283-0.7469788c-0.3569946-0.1820068-0.7729492-0.2730103-1.2479858-0.2730103
				c-0.5130005,0-0.9779663,0.1040039-1.3969727,0.3120117c-0.4200439,0.2070007-0.7820435,0.5029907-1.0880127,0.8869934
				c-0.3070068,0.3840027-0.5440063,0.8529968-0.7130127,1.4069824c-0.1690063,0.553009-0.2539673,1.177002-0.2539673,1.8690186
				c0,1.4109802,0.3039551,2.5149841,0.9099731,3.3139954c0.6069946,0.7999878,1.4290161,1.1999817,2.4680176,1.1999817
				c0.5490112,0,1.0279541-0.1079712,1.4349976-0.3209839c0.4060059-0.2149963,0.7849731-0.5169983,1.1350098-0.9070129
				l1.2199707,1.3410034c-0.5009766,0.5780029-1.0700073,1.0230103-1.7080078,1.3309937
				c-0.6380005,0.309021-1.3449707,0.4620056-2.1199951,0.4620056c-0.7879639,0-1.5200195-0.1380005-2.1950073-0.4140015
				c-0.6759644-0.2769775-1.2639771-0.6869812-1.7639771-1.2290039c-0.5-0.539978-0.8939819-1.2079773-1.1819763-2.0009766
				C123.2413025,62.5772095,123.0983276,61.6712036,123.0983276,60.6511841"/>
			<path fill="#49C8F5" d="M134.4487305,53.4564819h2.157959v11.0660095c0,0.2650146,0.0490112,0.4490051,0.1500244,0.5570068
				c0.0999756,0.1069946,0.2059937,0.1610107,0.3189697,0.1610107h0.1409912c0.0440063,0,0.1090088-0.0130005,0.1960449-0.0380249
				l0.2810059,1.6240234c-0.2880249,0.125-0.6680298,0.1879883-1.1430054,0.1879883
				c-0.776001,0-1.3200073-0.2319946-1.6329956-0.697998c-0.3130493-0.4660034-0.4689941-1.1010132-0.4689941-1.9070129V53.4564819z
				"/>
			<path fill="#49C8F5" d="M141.2398071,62.1621704c0,0.9310303,0.190979,1.677002,0.572998,2.23703
				c0.3809814,0.5609741,0.9099731,0.8409729,1.5849609,0.8409729c0.6760254,0,1.2059937-0.2799988,1.5950317-0.8409729
				c0.3869629-0.5600281,0.5819702-1.3059998,0.5819702-2.23703c0-0.9449768-0.1950073-1.696991-0.5819702-2.2579956
				c-0.3890381-0.5589905-0.9190063-0.8389893-1.5950317-0.8389893c-0.6749878,0-1.2039795,0.2799988-1.5849609,0.8389893
				C141.4307861,60.4651794,141.2398071,61.2171936,141.2398071,62.1621704 M139.0258179,62.1621704
				c0-0.7679749,0.1199951-1.4549866,0.3569946-2.0579834c0.2379761-0.605011,0.5599976-1.1149902,0.9660034-1.5310059
				c0.4069824-0.4140015,0.8729858-0.7330017,1.3969727-0.9519958c0.5269775-0.2210083,1.0759888-0.3320007,1.6519775-0.3320007
				c0.5750122,0,1.1280518,0.1109924,1.6600342,0.3320007c0.5319824,0.2189941,0.9979858,0.5379944,1.3980103,0.9519958
				c0.3999634,0.4160156,0.7219849,0.9259949,0.9660034,1.5310059c0.2439575,0.6029968,0.3659668,1.2900085,0.3659668,2.0579834
				c0,0.7680054-0.1220093,1.45401-0.3659668,2.0580139c-0.2440186,0.6040039-0.56604,1.1140137-0.9660034,1.5289917
				c-0.4000244,0.4150085-0.8660278,0.730011-1.3980103,0.9450073c-0.5319824,0.2130127-1.085022,0.3210144-1.6600342,0.3210144
				c-0.5759888,0-1.125-0.1080017-1.6519775-0.3210144c-0.5239868-0.2149963-0.9899902-0.5299988-1.3969727-0.9450073
				c-0.4060059-0.414978-0.7280273-0.9249878-0.9660034-1.5289917
				C139.145813,63.6161804,139.0258179,62.9301758,139.0258179,62.1621704"/>
			<path fill="#49C8F5" d="M149.9266357,57.5158691h2.157959v5.5340271c0,0.7679749,0.1119995,1.3089905,0.3370361,1.6239929
				c0.2259521,0.3150024,0.5879517,0.4710083,1.0879517,0.4710083c0.401001,0,0.7540283-0.1000061,1.0599976-0.302002
				c0.3060303-0.2010193,0.6360474-0.5280151,0.9850464-0.9810181v-6.3460083h2.157959v9.2720032h-1.7630005l-0.1699829-1.3589783
				h-0.0549927c-0.401001,0.4779968-0.8359985,0.8619995-1.3049927,1.1519775
				c-0.4689941,0.2900085-1.0230103,0.434021-1.6600342,0.434021c-0.9879761,0-1.7069702-0.3170166-2.157959-0.95401
				c-0.4500122-0.6359863-0.6749878-1.5450134-0.6749878-2.7290039V57.5158691z"/>
			<path fill="#49C8F5" d="M162.2145996,62.1431885c0,1.006012,0.1789551,1.7720032,0.5359497,2.2940063
				c0.3570557,0.5229797,0.8720093,0.7839966,1.5469971,0.7839966c0.6870117,0,1.3320312-0.3460083,1.9330444-1.0390015v-4.3240051
				c-0.3259888-0.2900085-0.6409912-0.4909973-0.947998-0.605011c-0.3070068-0.1129761-0.6160278-0.1689758-0.9290161-0.1689758
				c-0.5999756,0-1.1069946,0.2630005-1.5189819,0.7929993C162.4225464,60.4051819,162.2145996,61.1601868,162.2145996,62.1431885
				 M159.982605,62.1621704c0-0.7559814,0.1089478-1.4359741,0.3279419-2.0389709
				c0.2190552-0.605011,0.5100098-1.1150208,0.8730469-1.5299988c0.3629761-0.4150085,0.7789917-0.73703,1.2470093-0.9640198
				c0.4689941-0.2259827,0.9539795-0.3399963,1.4549561-0.3399963c0.5250244,0,0.9689941,0.0920105,1.3320312,0.2739868
				c0.3619995,0.1830139,0.7249756,0.4320068,1.0869751,0.7460022l-0.0739746-1.4909973v-3.3619995h2.1569824v13.3320007h-1.7819824
				l-0.1500244-1.0010071h-0.0750122c-0.3369751,0.3400269-0.7319946,0.6300049-1.1820068,0.8690186
				c-0.4499512,0.2389832-0.9259644,0.3590088-1.4259644,0.3590088c-1.1630249,0-2.0859985-0.4250183-2.7670288-1.2750244
				C160.3235474,64.8911743,159.982605,63.6981812,159.982605,62.1621704"/>
		<polygon fill="#49C8F5" points="175.3479004,54.4378662 182.7398682,54.4378662 182.7398682,56.2888794 177.5248413,56.2888794 
			177.5248413,59.4428711 181.9338989,59.4428711 181.9338989,61.2928772 177.5248413,61.2928772 177.5248413,64.9368896 
			182.9278564,64.9368896 182.9278564,66.7878723 175.3479004,66.7878723"/>
			<path fill="#49C8F5" d="M187.7112427,60.2171936h1.7450562c0.8379517,0,1.4789429-0.177002,1.9229736-0.5299988
				c0.4429932-0.3510132,0.6660156-0.8800049,0.6660156-1.5859985c0-0.7160034-0.2230225-1.2139893-0.6660156-1.4920044
				c-0.4440308-0.276001-1.085022-0.4150085-1.9229736-0.4150085h-1.7450562V60.2171936z M192.2322998,66.7881775
				l-2.6460571-4.8349915h-1.875v4.8349915h-2.177002V54.4382019h4.1470337c0.6370239,0,1.2310181,0.0629883,1.7819824,0.1889954
				c0.5499878,0.1260071,1.0250244,0.3309937,1.4249878,0.6130066c0.401001,0.2839966,0.7160034,0.6589966,0.947998,1.125
				c0.2310181,0.4649963,0.3470459,1.0449829,0.3470459,1.7359924c0,0.9450073-0.2220459,1.7070007-0.6650391,2.2850037
				c-0.4450073,0.5799866-1.0359497,0.9949951-1.7739868,1.2469788l2.9260254,5.1549988H192.2322998z"/>
			<path fill="#49C8F5" d="M200.8253174,60.4998779c1.8009644,0,2.7009888-0.7489929,2.7009888-2.2470093
				c0-0.7799988-0.2249756-1.3190002-0.6749878-1.6149902c-0.4509888-0.2949829-1.1260376-0.4429932-2.026001-0.4429932h-1.7820435
				v4.3049927H200.8253174z M196.866333,54.4378662h4.1279907c0.6759644,0,1.2979736,0.0630188,1.8659668,0.1900024
				c0.5690308,0.125,1.0610352,0.3400269,1.4730225,0.6410217c0.4140015,0.3029785,0.7379761,0.696991,0.9760132,1.1809998
				c0.2369995,0.4839783,0.355957,1.0849915,0.355957,1.8029785c0,0.6800232-0.1189575,1.2710266-0.355957,1.7750244
				c-0.2380371,0.5039978-0.56604,0.9229736-0.9850464,1.2549744c-0.4190063,0.3340149-0.9129639,0.5800171-1.4829712,0.7369995
				c-0.5679932,0.15802-1.1849976,0.2369995-1.8469849,0.2369995h-1.9510498v4.5310059h-2.1769409V54.4378662z"/>
</svg>